<?xml version="1.0" encoding="UTF-8"?>
<svg id="_レイヤー_1" data-name="レイヤー_1" xmlns="http://www.w3.org/2000/svg" version="1.1" viewBox="0 0 128 128">
  <!-- Generator: Adobe Illustrator 29.6.1, SVG Export Plug-In . SVG Version: 2.1.1 Build 9)  -->
  <g id="_生成オブジェクト" data-name="生成オブジェクト">
    <g>
      <path d="M91.89,24.49c.05,9.25-.04,18.5,0,27.75-.25.16-1.06.22-1.12.42-.77,2.55.52,9.65-.28,12.79-9.5,1.21-17.04,6.85-21.26,15.47-1.17-.16-2.83.22-3.91,0-5.5-1.11-17.24-11.16-23.06-12.65-2.3-.59-4.1.3-6.38-.09-.03-5.87-.07-11.74-.11-17.61-.58.08-2.97-.23-3.21.12-.51.72.52,16.52-.14,17.29-6.37-.76-15.05,1.07-21.09,0-.88-.16-2.84-2.01-4.81-1.12-.09-4.73-.08-9.61,0-14.34,2.96,1.07,4.07-1.59,5.93-1.97,5.67-1.16,16.59.38,23.32-.26,1.32-.13,2.68.23,3.96-.3l48.37-26.15c.48,1.16,2.61.24,3.8.65Z" fill="#fdb944"/>
      <path d="M91.89,24.49c-1.19-.41-3.31.51-3.8-.65l-48.37,26.15c-1.27.53-2.63.18-3.96.3-6.73.64-17.65-.89-23.32.26-1.86.38-2.97,3.03-5.93,1.97.07-3.95-1.16-10.92,2.42-13.27,2.78-1.83,22.05-.13,26.45-.33l.31.02,55.69-30.04.5.3c.02,5.1-.03,10.2,0,15.3Z" fill="#fddc93"/>
      <path d="M69.23,80.92c-2.19,4.47-3.02,11.03-2.18,15.9-.74.03-1.73-.55-2.39-.9-7.83-4.06-21.49-13.31-29.04-15.65.45-.68.29-1.42.32-2.17.14-3.28-.05-6.64-.06-9.93,2.28.38,4.08-.5,6.38.09,5.81,1.49,17.56,11.54,23.06,12.65,1.08.22,2.74-.16,3.91,0Z" fill="#e49934"/>
      <path d="M35.88,68.18c.01,3.29.2,6.65.06,9.93-.03.75.12,1.49-.32,2.17-5.04-1.56-22.54,1.56-26.4-.65s-2.62-8.8-2.7-12.77c1.97-.88,3.92.97,4.81,1.12,6.04,1.07,14.72-.76,21.09,0,.66-.77-.37-16.57.14-17.29.25-.35,2.63-.04,3.21-.12.04,5.87.08,11.74.11,17.61Z" fill="#e49934"/>
      <path d="M115.74,76.14c-.07-.09-.1-.2-.17-.28-4.67,1.82-6.71-1.61-10.32-3.09-19.08-7.84-38.5,9.26-33.04,29.1l-3.49.14c-.41-.89-.72-1.88-1.01-2.81h0c-.26-.78-.52-1.57-.66-2.38-.84-4.87,0-11.43,2.18-15.9,4.22-8.62,11.76-14.26,21.26-15.47,9.68-1.23,18.96,2.8,25.08,10.4.07.08.1.2.17.28Z" fill="#aae08f"/>
      <g>
        <path d="M115.74,76.14c23.47,29.92-29.52,63.91-47.02,25.87l3.49-.14c-5.46-19.85,13.96-36.95,33.04-29.1,3.61,1.48,5.65,4.91,10.32,3.09.07.08.1.2.17.28Z" fill="#80ce5f"/>
        <path d="M103.73,78.26l.2-.2c2.95,3.9,9.65,6.2,5.39,11.58-2.71,3.42-12.3,12.7-15.75,15.47-2.28,1.83-4.58,2.29-7.03.45-1.33-1-8.03-7.87-8.66-9.17-1.42-2.9,1.93-6.19,4.16-7.54,3.77-2.28,6.78,3.13,8.58,2.58,1.82-.55,10.59-11.52,13.11-13.17Z" fill="#f0f2fc" stroke="#393952" stroke-linecap="round" stroke-linejoin="round" stroke-width="6.53"/>
      </g>
    </g>
    <g>
      <path d="M35.7,38.93l55.69-30.04.5.3c.02,5.1-.03,10.2,0,15.3.05,9.25-.04,18.5,0,27.75" fill="none" stroke="#393a53" stroke-linecap="round" stroke-linejoin="round" stroke-width="7.21"/>
      <path d="M35.7,38.93l-.31-.02c-4.41.2-23.67-1.49-26.45.33-3.58,2.35-2.35,9.33-2.42,13.27-.08,4.74-.09,9.61,0,14.34.08,3.97-1.15,10.56,2.7,12.77s21.36-.91,26.4.65c7.55,2.34,21.21,11.59,29.04,15.65" fill="none" stroke="#393a53" stroke-linecap="round" stroke-linejoin="round" stroke-width="7.21"/>
      <path d="M35.7,38.93c.02,3.79.05,7.57.07,11.36v.28c.04,5.87.08,11.74.11,17.61.01,3.29.2,6.65.06,9.93" fill="none" stroke="#393a53" stroke-linecap="round" stroke-linejoin="round" stroke-width="7.21"/>
      <path d="M67.71,99.2c.29.93.6,1.93,1.01,2.81,17.5,38.04,70.48,4.05,47.02-25.87-.07-.09-.1-.2-.17-.28-6.12-7.6-15.4-11.64-25.08-10.4-9.5,1.21-17.04,6.85-21.26,15.47-2.19,4.47-3.02,11.03-2.18,15.9.14.81.41,1.6.66,2.38h0Z" fill="none" stroke="#393a53" stroke-linecap="round" stroke-linejoin="round" stroke-width="7.21"/>
    </g>
  </g>
</svg>